<?xml version="1.0" encoding="utf-8"?>
<!-- Generator: Adobe Illustrator 22.1.0, SVG Export Plug-In . SVG Version: 6.00 Build 0)  -->
<svg version="1.1" id="Layer_1" xmlns="http://www.w3.org/2000/svg" xmlns:xlink="http://www.w3.org/1999/xlink" x="0px" y="0px"
	 viewBox="0 0 480 93.4" style="enable-background:new 0 0 480 93.4;" xml:space="preserve">
<style type="text/css">
	.st0{fill:#FFFFFF;}
</style>
<title>partner</title>
<path class="st0" d="M275.4,93.2l28.8-43.6l-0.1,8.6v34.9h17.2V22.5h-17.1l-37.8,56.8l-37-56.8h-17.1v70.6h17.2V58.2l-0.1-8.6
	l28.8,43.6H275.4z M0,0v88.7c0,3.1,2.1,4.6,4.8,4.6h80.9V80.8H22.4c-1.7,0-2.4-1.1-2.4-3.2V0L0,0z M179.4,93.3
	c4.7,0,5.9-1.8,8.3-4.8c2.4-3,5.9-11.3,5.9-20.8v-45h-17.2v41.9c0,5.8,0,11.6-2.2,13.8c-2.2,2.2-5.4,2.7-10.7,2.7h-35.6
	c-5.4,0-8.5-0.4-10.7-2.7c-2.2-2.2-2.2-8-2.2-13.8V22.7H97.8v45c0,9.5,3.6,17.8,5.9,20.8c2.4,3,3.5,4.8,8.3,4.8L179.4,93.3z
	 M361.7,93.3h-17.2V22.7h17.2V93.3z M480,93.1l-42.3-36.5l39.4-33.9h-21.8l-28.6,24.5l-28.4-24.6h-21.9L416,56.7l-42.4,36.7h21.8
	l31.5-27.3l31.4,27.2L480,93.1z"/>
</svg>
