<?xml version="1.0" encoding="utf-8"?>
<!-- Generator: Adobe Illustrator 22.1.0, SVG Export Plug-In . SVG Version: 6.00 Build 0)  -->
<svg version="1.1" id="Layer_1" xmlns="http://www.w3.org/2000/svg" xmlns:xlink="http://www.w3.org/1999/xlink" x="0px" y="0px"
	 viewBox="0 0 1071 201.1" style="enable-background:new 0 0 1071 201.1;" xml:space="preserve">
<style type="text/css">
	.st0{fill:#FFFFFF;}
</style>
<title>partner</title>
<g>
	<g>
		<path class="st0" d="M907.8,141.1l23-34.8l-0.1,6.9V141h13.7V84.7h-13.6L900.6,130l-29.5-45.3h-13.6V141h13.7v-27.8l-0.1-6.9
			l23,34.8H907.8z M688.1,66.7v70.8c0,2.5,1.7,3.7,3.8,3.7h64.5v-10H706c-1.4,0-1.9-0.9-1.9-2.6V66.7H688.1z M831.2,141.2
			c3.7,0,4.7-1.4,6.6-3.8s4.7-9,4.7-16.6V84.9h-13.7v33.4c0,4.6,0,9.3-1.8,11s-4.3,2.2-8.5,2.2h-28.4c-4.3,0-6.8-0.3-8.5-2.2
			c-1.8-1.8-1.8-6.4-1.8-11V84.9h-13.7v35.9c0,7.6,2.9,14.2,4.7,16.6c1.9,2.4,2.8,3.8,6.6,3.8H831.2z M976.6,141.2h-13.7V84.9h13.7
			V141.2z M1071,141l-33.7-29.1l31.4-27h-17.4l-22.8,19.5l-22.7-19.6h-17.5l31.6,27.2l-33.8,29.3h17.4l25.1-21.8l25,21.7L1071,141z"
			/>
	</g>
	<g id="layer1" transform="translate(374.9204,-408.833)">
		<g id="g24516" transform="translate(-1.494141e-6,7.088289)">
			<path id="path23367" class="st0" d="M-374.9,542.1v-81.6h34.2c11.6,0.1,22.7,0.7,30.4,11.1c2.2,2.9,5.2,8.3,5.2,17.3
				c0,11.4-5,18.2-8.4,21.4c-6.1,6.1-14.2,6.7-22.3,7.1h-15v24.7H-374.9z M-341.4,498.4c4-0.1,8.6-0.3,11.4-3.3
				c0.8-0.9,2.2-2.6,2.2-5.4c-0.1-2.8-1.3-4.6-2.1-5.4c-3.5-3.8-9.2-3.4-13.8-3.4h-6.7v17.5H-341.4"/>
			<path id="path23369" class="st0" d="M-265.8,542.2l-0.9-5.4c-3.1,2.4-8.8,7.2-19,7.2c-1.8,0-9.4-0.2-14.6-4.6
				c-2.3-2-6.2-6.7-6.2-14.6c0-1.9,0.5-5,3.5-8.9c4.2-5.7,9.3-7.2,15.8-8.7l10.9-1.4c1.2-0.4,2.6-0.7,4-0.9c0.3-0.1,2.1-0.4,3-1.1
				s1.7-3.4,1.7-4.6c0-2.3-3-4.2-7.6-4.2c-4.1,0-6.1,1.5-7.1,3c-0.5,0.8-0.7,1.5-0.8,3.4l-20.7-0.1c0.9-4.7,1.9-8.5,5.3-12.5
				c4.2-4.7,10.9-7.7,24-7.7c2.5,0,12.6-1,20,3.9c3,2,5,4.3,6.3,7.4c2.3,4.9,1.7,10.7,1.7,15.8v16.3c-0.1,10.2,0.6,12,2.5,17.8
				H-265.8z M-268,515.9c-3,1-6.1,2-9.2,3l-2.3,0.7c-1.1,0.2-4.6,1-4.6,5.4c0,2,1.1,5.5,5.7,5.5c0.6,0,3.4-0.3,4.8-0.7
				c4.1-1.2,4.4-3.8,5.6-5V515.9"/>
			<path id="path23371" class="st0" d="M-203.4,542.2v-28.9c0,3.4,0.9-11.3-2.2-12.7c-1-0.5-3-1.5-5.4-1.5c-2.7,0.1-5.7,1.4-6.7,3.7
				c-1.1,2.9-1.5,5.6-1.4,11.6v27.8h-22.3v-59.9h21l0.3,7c2.9-3.5,6.3-8.1,18.7-8.1c9.1,0,16,3.2,18.8,12.4c0.6,2.3,0.9,4.6,1.1,9.3
				v39.3H-203.4"/>
			<path id="path23373" class="st0" d="M-79.6,499.7c-0.4-2.3-2.1-6.1-7.7-6.1c-2.5,0-4.3,0.7-5.3,1.2c-0.5,0.2-1.3,1.7-1.3,3.4
				c0,0.5,0.4,1.8,1.8,2.6c0.8,0.5,2.8,1,5.1,1.3l8.8,2.3c6.2,1.6,11.6,2.7,15.9,7c2.2,2.1,3.3,4.7,3.6,5.8c1,3.1,0.5,5.5,0.5,6.5
				c0,7.1-3.4,11.3-5.4,13.1c-4.2,3.9-10.9,6.8-23.2,6.8c-10.2,0-16.6-2.7-20.4-4.9c-8.1-4.7-8.6-13.4-9.1-16.2l21.2-0.1
				c0.2,2.1,0.5,3.6,2.2,5.1c1.3,1.3,2.8,2.1,6.6,2.1c4.5,0,7.1-2.2,7.2-4.2c0.1-0.2,0.1-1.8-0.5-2.6c-1-1.7-3.8-2.4-7.8-3.5
				c0,0-12.4-2.7-13.3-3.1c-2.8-1.3-14-3.8-14-16.3c0-7.1,3.6-10.8,5.7-12.8c3.8-3.3,10.1-6.4,21.3-6.4c2.5,0,13-0.1,20.8,5.2
				c2.2,1.5,3.9,3.3,5.3,5.5c1.9,3.1,2.2,6.7,2.4,8H-79.6"/>
			<path id="path23381" class="st0" d="M-3,535.4c-3.6,3.7-11,8.5-23.3,8.5c-3.9,0-14.7-0.2-22.7-9.6c-3.3-4-7.3-10.6-7.3-22.6
				c0-2.1,0-6.8,2-11.9c4.4-13,16.5-19,29.2-18.9c3.4,0,14,0.3,21.7,8.1c3.8,3.9,8.7,11,8.6,23.6C5,515.7,4.8,527.4-3,535.4z
				 M-19.5,499.2c-2-1.8-5-2.2-6-2.2c-2.6,0-4.4,1.5-5.1,1.9c-2.7,2.2-4.6,5.5-4.6,12.9c0,5.8,1.3,15.6,9.6,15.6
				c2.4,0,4.6-0.6,6.1-2.3c2-2.2,4-6.1,3.9-13C-15.6,511.9-15.5,503.4-19.5,499.2"/>
			<path id="path23383" class="st0" d="M72.6,482.2h21.9v60.1H72.6V482.2z M72.6,459.9h21.9v15.6H72.6V459.9z"/>
			<path id="path23385" class="st0" d="M136.5,505.2c-1.7-7.2-5.2-7.6-9.1-7.6c-3.2,0-4.2,1.1-5.3,2c-2.8,2.4-3.7,5.3-3.7,12.6
				c0,0.6-0.3,10.4,5.1,14.1c1.5,1,2.3,1.1,4.1,1.1c0.6,0,2.5,0.1,4.1-0.7c2.2-1,4.4-2.9,4.8-8l21.1-0.2c-0.2,1.4-1,6.2-3.1,10.1
				c-5.3,10.5-16,14.9-26.8,14.9c-4.4,0-7.5-0.7-9.4-1c-8.6-2.1-16.1-8.1-19.4-16.7c-0.9-2.6-2.2-6.5-2.2-13.1
				c0-2.7,0.1-9.7,3.9-16.7c0.5-1.1,2.3-4,4.7-6.5c8-7.9,20-8.1,22.9-8.1c11.1,0,18,4.2,21.5,7.3c1,1,3.1,3.7,4.7,7.5
				c1.3,3,2.1,5.8,2.6,9H136.5"/>
			<path id="path23387" class="st0" d="M-118.5,524.7v-16.3c0-5.1,0-11.9-2.2-16.8c-1.4-3.1-2.5-4.9-5.5-6.8c-7.4-5-18.4-4-20.8-4
				c-13.1,0-19.8,3.5-24,8.2c-3.4,3.9-4.1,7.8-5.1,12.5h20.7c0.1-1.9,0.4-2.5,0.8-3.4c1.1-1.5,2.8-3.4,6.9-3.4
				c4.6,0,7.6,2.4,7.6,4.7c0,1.3-0.1,3.3-1,4c-0.9,0.7-3.3,1.5-3.7,1.6c-1,0.2-2.4,0.5-4,0.9l-10.8,1.4c-6.5,1.5-11.6,2.8-15.8,8.5
				c-3.1,3.9-3.1,7.5-3.1,9.4c0,7.9,3.4,12.4,5.7,14.4c5.3,4.4,12.8,4.2,14.6,4.2c10.2,0,15.6-4.5,18.8-6.9l0.9,5.7h22.4
				C-117.3,538.7-118.6,536.6-118.5,524.7z M-145.9,530.2c-1.4,0.5-3.9,0.4-4.5,0.3c-3.7-0.2-5.7-3.6-5.7-5.6c0-4.4,3.5-5.1,4.6-5.3
				l2.4-0.7c3-1,6.1-1.9,9.1-3l0.1,7.6C-140.8,525.3-141.8,529-145.9,530.2"/>
			<path id="path23389" class="st0" d="M46.2,542.1V513c0,3.4,1-11.1-2.1-12.6c-1-0.5-3-1.5-5.3-1.4c-2.7,0.1-5.8,1.4-6.7,3.7
				c-1.2,2.9-1.9,4.9-1.8,10.9l-0.2,28.6l-21.8-0.1v-59.9h20.9l0.3,7c2.9-3.5,6.3-8.1,18.8-8.1c9,0,15.9,3.8,18.7,13
				c0.6,2.3,0.7,3.8,1,8.6v39.4L46.2,542.1"/>
		</g>
	</g>
	<rect x="607.8" class="st0" width="3.5" height="201.1"/>
</g>
</svg>
