<?xml version="1.0" encoding="utf-8"?>
<!-- Generator: Adobe Illustrator 22.1.0, SVG Export Plug-In . SVG Version: 6.00 Build 0)  -->
<svg version="1.1" id="Layer_1" xmlns="http://www.w3.org/2000/svg" xmlns:xlink="http://www.w3.org/1999/xlink" x="0px" y="0px"
	 viewBox="0 0 52.9 40" style="enable-background:new 0 0 52.9 40;" xml:space="preserve">
<style type="text/css">
	.st0{fill:#BF2030;}
</style>
<g>
	<path class="st0" d="M40.4,0.5c0.5,0.2,1,0.3,1.5,0.3c0.5,0,0.9-0.1,1.4-0.2c0.5-0.1,0.9-0.3,1.3-0.4C45.1,0,45.5,0,45.9,0
		c0.3,0.2,0.6,0.4,1,0.5s0.7,0.3,1,0.4c0.3,0.1,0.7,0.3,1,0.5s0.6,0.5,0.9,0.9c0.1,0.8,0.1,1.5,0,2.1c-0.1,0.6-0.1,1.2-0.1,1.9
		c-0.5,0.8-1.1,1.3-1.8,1.7c-0.8,0.4-1.6,0.6-2.5,0.8C44.4,9,43.5,9,42.6,9c-0.9,0-1.7-0.1-2.4-0.3c-0.3-0.4-0.5-0.4-0.6,0
		c-0.3,0-0.8,0-1.5,0c-0.7,0-1.6,0.1-2.4,0.1C34.8,9,33.9,9,32.9,9.1c-0.9,0.1-1.8,0.1-2.5,0.2c-0.6,0.3-1.6,0.5-3,0.6
		c-1.4,0.1-2.8,0.2-4.2,0.3c-1.5,0.1-2.8,0.2-4.1,0.4c-1.3,0.2-2.1,0.4-2.6,0.8c-0.9-0.1-2.1-0.1-3.5,0.2c-1.5,0.2-2.9,0.5-4.5,0.6
		c-1.5,0.2-3,0.2-4.3,0.1c-1.3-0.1-2.3-0.5-3-1.4c0.6-1.5,1.4-2.8,2.4-3.8c1-1.1,2.3-2.1,3.8-3.1C7.9,4,8.8,3.9,9.8,3.9
		c1.1-0.1,2.2-0.1,3.5-0.2c1.3-0.1,2.6-0.2,4-0.3c1.4-0.1,2.7-0.2,3.9-0.3c1.2-0.1,2.3-0.2,3.3-0.4c1-0.1,1.7-0.3,2.2-0.5
		c0.9,0,1.8-0.1,2.9-0.3c1.1-0.2,2.2-0.4,3.4-0.6S35.3,1,36.5,1c1.2-0.1,2.2,0.1,3.1,0.4c0.2-0.1,0.4-0.2,0.5-0.4
		C40.1,0.8,40.3,0.6,40.4,0.5z"/>
</g>
<g>
	<path class="st0" d="M43.6,14.5c0.5,0.3,1,0.4,1.5,0.4c0.5,0,0.9,0,1.4-0.2s0.9-0.2,1.3-0.4c0.4-0.1,0.8-0.2,1.2-0.1
		c0.3,0.2,0.6,0.4,0.9,0.6c0.3,0.2,0.6,0.3,1,0.5c0.3,0.2,0.7,0.3,1,0.6c0.3,0.2,0.6,0.5,0.9,0.9c0,0.8,0,1.5-0.1,2.1
		c-0.1,0.5-0.2,1.2-0.2,1.9c-0.5,0.7-1.1,1.3-1.9,1.6c-0.8,0.3-1.6,0.5-2.5,0.6c-0.9,0.1-1.8,0.1-2.7,0s-1.7-0.2-2.3-0.4
		c-0.3-0.4-0.5-0.4-0.6,0c-0.3,0-0.8,0-1.5-0.1c-0.7,0-1.6,0-2.4,0c-0.9,0-1.8,0.1-2.8,0.1c-1,0-1.8,0.1-2.5,0.1
		c-0.6,0.3-1.7,0.4-3,0.5c-1.4,0-2.8,0.1-4.3,0.1c-1.5,0-2.8,0.1-4.1,0.2c-1.3,0.1-2.1,0.3-2.6,0.7c-0.9-0.2-2.1-0.2-3.5,0
		c-1.5,0.2-3,0.3-4.5,0.4c-1.5,0.1-3,0.1-4.3-0.1c-1.3-0.2-2.3-0.7-2.9-1.5c0.6-1.5,1.5-2.7,2.5-3.7c1.1-1,2.4-2,4-2.9
		c0.6,0,1.4,0,2.5-0.1s2.2,0,3.5-0.1c1.3,0,2.6-0.1,4-0.1c1.4,0,2.7-0.1,3.9-0.1c1.2-0.1,2.3-0.1,3.3-0.2c1-0.1,1.7-0.2,2.2-0.4
		c0.9,0,1.8,0,3-0.2c1.1-0.2,2.3-0.3,3.4-0.4c1.2-0.1,2.4-0.2,3.5-0.2c1.2,0,2.2,0.2,3.1,0.5c0.2-0.1,0.4-0.2,0.5-0.4
		C43.3,14.8,43.4,14.6,43.6,14.5z"/>
</g>
<g>
	<path class="st0" d="M39.2,28.1c0.5,0.2,1,0.3,1.5,0.3c0.5,0,0.9-0.1,1.4-0.2c0.5-0.1,0.9-0.3,1.3-0.4c0.4-0.1,0.8-0.2,1.2-0.2
		c0.3,0.2,0.6,0.4,1,0.5s0.7,0.3,1,0.4c0.3,0.1,0.7,0.3,1,0.5s0.6,0.5,0.9,0.9c0.1,0.8,0.1,1.5,0,2.1c-0.1,0.6-0.1,1.2-0.1,1.9
		c-0.5,0.8-1.1,1.3-1.8,1.7c-0.8,0.4-1.6,0.6-2.5,0.8c-0.9,0.1-1.8,0.2-2.7,0.1c-0.9,0-1.7-0.1-2.4-0.3c-0.3-0.4-0.5-0.4-0.6,0
		c-0.3,0-0.8,0-1.5,0c-0.7,0-1.6,0.1-2.4,0.1c-0.9,0.1-1.8,0.1-2.8,0.2c-0.9,0.1-1.8,0.1-2.5,0.2c-0.6,0.3-1.6,0.5-3,0.6
		c-1.4,0.1-2.8,0.2-4.2,0.3c-1.5,0.1-2.8,0.2-4.1,0.4c-1.3,0.2-2.1,0.4-2.6,0.8c-0.9-0.1-2.1-0.1-3.5,0.2c-1.5,0.2-2.9,0.5-4.5,0.6
		C5.7,40,4.3,40,3,39.9c-1.3-0.1-2.3-0.5-3-1.4c0.6-1.5,1.4-2.8,2.4-3.8c1-1.1,2.3-2.1,3.8-3.1c0.6-0.1,1.4-0.1,2.4-0.2
		c1.1-0.1,2.2-0.1,3.5-0.2c1.3-0.1,2.6-0.2,4-0.3c1.4-0.1,2.7-0.2,3.9-0.3c1.2-0.1,2.3-0.2,3.3-0.4c1-0.1,1.7-0.3,2.2-0.5
		c0.9,0,1.8-0.1,2.9-0.3c1.1-0.2,2.2-0.4,3.4-0.6s2.3-0.3,3.5-0.4c1.2-0.1,2.2,0.1,3.1,0.4c0.2-0.1,0.4-0.2,0.5-0.4
		C38.9,28.3,39.1,28.2,39.2,28.1z"/>
</g>
</svg>
